LisuNew-Bold.ufo
<glyph name="quotedbl" format="2">
  <advance width="954"/>
  <unicode hex="0022"/>
  <outline>
    <contour>
      <point x="821" y="1184" type="line"/>
      <point x="821" y="1118"/>
      <point x="774" y="961" type="qcurve"/>
      <point x="629" y="961" type="line"/>
      <point x="582" y="1118"/>
      <point x="582" y="1184" type="qcurve"/>
      <point x="582" y="1382" type="line"/>
      <point x="821" y="1382" type="line"/>
    </contour>
    <contour>
      <point x="385" y="1184" type="line"/>
      <point x="385" y="1133"/>
      <point x="340" y="961" type="qcurve"/>
      <point x="193" y="961" type="line"/>
      <point x="145" y="1118"/>
      <point x="145" y="1184" type="qcurve"/>
      <point x="145" y="1382" type="line"/>
      <point x="385" y="1382" type="line"/>
    </contour>
  </outline>
</glyph>
<glyph name="numbersign" format="2">
  <advance width="1520"/>
  <unicode hex="0023"/>
  <outline>
    <contour>
      <point x="1370" y="330" type="line"/>
      <point x="1038" y="330" type="line"/>
      <point x="954" y="2" type="line"/>
      <point x="797" y="2" type="line"/>
      <point x="879" y="330" type="line"/>
      <point x="500" y="330" type="line"/>
      <point x="418" y="2" type="line"/>
      <point x="258" y="2" type="line"/>
      <point x="340" y="330" type="line"/>
      <point x="150" y="330" type="line"/>
      <point x="150" y="455" type="line"/>
      <point x="373" y="455" type="line"/>
      <point x="451" y="772" type="line"/>
      <point x="150" y="772" type="line"/>
      <point x="150" y="895" type="line"/>
      <point x="481" y="895" type="line"/>
      <point x="565" y="1223" type="line"/>
      <point x="723" y="1223" type="line"/>
      <point x="641" y="895" type="line"/>
      <point x="1022" y="895" type="line"/>
      <point x="1102" y="1223" type="line"/>
      <point x="1262" y="1223" type="line"/>
      <point x="1180" y="895" type="line"/>
      <point x="1370" y="895" type="line"/>
      <point x="1370" y="772" type="line"/>
      <point x="1147" y="772" type="line"/>
      <point x="1069" y="455" type="line"/>
      <point x="1370" y="455" type="line"/>
    </contour>
    <contour>
      <point x="989" y="772" type="line"/>
      <point x="608" y="772" type="line"/>
      <point x="530" y="455" type="line"/>
      <point x="911" y="455" type="line"/>
    </contour>
  </outline>
</glyph>
<glyph name="ampersand" format="2">
  <advance width="1642"/>
  <unicode hex="0026"/>
  <outline>
    <contour>
      <point x="1530" y="244" type="qcurve"/>
      <point x="1530" y="113"/>
      <point x="1425" y="41" type="qcurve"/>
      <point x="1335" y="-23"/>
      <point x="1198" y="-23" type="qcurve"/>
      <point x="1042" y="-23"/>
      <point x="915" y="125" type="qcurve"/>
      <point x="741" y="-23"/>
      <point x="526" y="-23" type="qcurve"/>
      <point x="371" y="-23"/>
      <point x="256" y="74" type="qcurve"/>
      <point x="135" y="174"/>
      <point x="137" y="328" type="qcurve"/>
      <point x="139" y="498"/>
      <point x="274" y="647" type="qcurve"/>
      <point x="340" y="719"/>
      <point x="541" y="868" type="qcurve"/>
      <point x="516" y="915"/>
      <point x="471" y="1085"/>
      <point x="471" y="1137" type="qcurve"/>
      <point x="471" y="1278"/>
      <point x="596" y="1348" type="qcurve"/>
      <point x="694" y="1403"/>
      <point x="848" y="1403" type="qcurve"/>
      <point x="961" y="1403"/>
      <point x="1042" y="1360" type="qcurve"/>
      <point x="1145" y="1307"/>
      <point x="1145" y="1204" type="qcurve"/>
      <point x="1145" y="1106"/>
      <point x="1026" y="995" type="qcurve"/>
      <point x="928" y="903"/>
      <point x="821" y="864" type="qcurve"/>
      <point x="850" y="811"/>
      <point x="915" y="639" type="qcurve"/>
      <point x="977" y="477"/>
      <point x="1014" y="418" type="qcurve"/>
      <point x="1159" y="590"/>
      <point x="1257" y="807" type="qcurve"/>
      <point x="1399" y="801" type="line"/>
      <point x="1268" y="502"/>
      <point x="1094" y="285" type="qcurve"/>
      <point x="1171" y="150"/>
      <point x="1264" y="150" type="qcurve"/>
      <point x="1319" y="150"/>
      <point x="1391" y="225"/>
      <point x="1391" y="281" type="qcurve"/>
      <point x="1391" y="326"/>
      <point x="1370" y="383" type="qcurve"/>
      <point x="1501" y="379" type="line"/>
      <point x="1530" y="301"/>
    </contour>
    <contour>
      <point x="995" y="1200" type="qcurve"/>
      <point x="995" y="1253"/>
      <point x="907" y="1307"/>
      <point x="850" y="1307" type="qcurve"/>
      <point x="795" y="1307"/>
      <point x="713" y="1239"/>
      <point x="713" y="1186" type="qcurve"/>
      <point x="713" y="1057"/>
      <point x="762" y="963" type="qcurve"/>
      <point x="840" y="991"/>
      <point x="911" y="1055" type="qcurve"/>
      <point x="995" y="1130"/>
    </contour>
    <contour>
      <point x="825" y="242" type="qcurve"/>
      <point x="778" y="322"/>
      <point x="715" y="489" type="qcurve"/>
      <point x="641" y="688"/>
      <point x="612" y="741" type="qcurve"/>
      <point x="410" y="573"/>
      <point x="410" y="422" type="qcurve"/>
      <point x="410" y="334"/>
      <point x="473" y="256" type="qcurve"/>
      <point x="541" y="172"/>
      <point x="625" y="172" type="qcurve"/>
      <point x="733" y="172"/>
    </contour>
  </outline>
</glyph>
<glyph name="quotesingle" format="2">
  <advance width="517"/>
  <unicode hex="0027"/>
  <outline>
    <contour>
      <point x="378" y="1184" type="line"/>
      <point x="378" y="1118"/>
      <point x="331" y="961" type="qcurve"/>
      <point x="186" y="961" type="line"/>
      <point x="139" y="1118"/>
      <point x="139" y="1184" type="qcurve"/>
      <point x="139" y="1382" type="line"/>
      <point x="378" y="1382" type="line"/>
    </contour>
  </outline>
</glyph>
<glyph name="parenleft" format="2">
  <advance width="946"/>
  <unicode hex="0028"/>
  <outline>
    <contour>
      <point x="936" y="-289" type="qcurve"/>
      <point x="838" y="-289" type="line"/>
      <point x="618" y="-147"/>
      <point x="459" y="104" type="qcurve"/>
      <point x="291" y="373"/>
      <point x="291" y="618" type="qcurve"/>
      <point x="291" y="864"/>
      <point x="461" y="1133" type="qcurve"/>
      <point x="618" y="1386"/>
      <point x="838" y="1528" type="qcurve"/>
      <point x="936" y="1528" type="line"/>
      <point x="768" y="1356"/>
      <point x="678" y="1106" type="qcurve"/>
      <point x="596" y="877"/>
      <point x="596" y="618" type="qcurve"/>
      <point x="596" y="362"/>
      <point x="678" y="131" type="qcurve"/>
      <point x="768" y="-117"/>
    </contour>
  </outline>
</glyph>
<glyph name="zero" format="2">
  <advance width="1194"/>
  <unicode hex="0030"/>
  <outline>
    <contour>
      <point x="1061" y="561" type="qcurve"/>
      <point x="1061" y="350"/>
      <point x="1028" y="238" type="qcurve"/>
      <point x="975" y="55"/>
      <point x="829" y="4" type="qcurve"/>
      <point x="754" y="-23"/>
      <point x="600" y="-23" type="qcurve"/>
      <point x="434" y="-23"/>
      <point x="360" y="8" type="qcurve"/>
      <point x="221" y="66"/>
      <point x="172" y="238" type="qcurve"/>
      <point x="139" y="350"/>
      <point x="139" y="547" type="qcurve"/>
      <point x="139" y="897"/>
      <point x="199" y="1028" type="qcurve"/>
      <point x="295" y="1239"/>
      <point x="600" y="1239" type="qcurve"/>
      <point x="901" y="1239"/>
      <point x="999" y="1034" type="qcurve"/>
      <point x="1061" y="905"/>
    </contour>
    <contour>
      <point x="780" y="383" type="qcurve"/>
      <point x="780" y="827" type="line"/>
      <point x="780" y="1100"/>
      <point x="600" y="1100" type="qcurve"/>
      <point x="481" y="1100"/>
      <point x="442" y="995" type="qcurve"/>
      <point x="420" y="934"/>
      <point x="420" y="791" type="qcurve"/>
      <point x="420" y="381" type="line"/>
      <point x="420" y="117"/>
      <point x="600" y="117" type="qcurve"/>
      <point x="780" y="117"/>
    </contour>
  </outline>
</glyph>
<glyph name="one" format="2">
  <advance width="1194"/>
  <unicode hex="0031"/>
  <outline>
    <contour>
      <point x="840" y="2" type="line"/>
      <point x="571" y="2" type="line"/>
      <point x="571" y="895" type="line"/>
      <point x="428" y="852"/>
      <point x="209" y="852" type="qcurve"/>
      <point x="209" y="987" type="line"/>
      <point x="543" y="1006"/>
      <point x="662" y="1221" type="qcurve"/>
      <point x="840" y="1221" type="line"/>
    </contour>
  </outline>
</glyph>
<glyph name="three" format="2">
  <advance width="1194"/>
  <unicode hex="0033"/>
  <outline>
    <contour>
      <point x="1026" y="389" type="qcurve"/>
      <point x="1026" y="182"/>
      <point x="887" y="74" type="qcurve"/>
      <point x="760" y="-25"/>
      <point x="547" y="-25" type="qcurve"/>
      <point x="383" y="-25"/>
      <point x="272" y="43" type="qcurve"/>
      <point x="139" y="125"/>
      <point x="139" y="279" type="qcurve"/>
      <point x="139" y="340"/>
      <point x="160" y="426" type="qcurve"/>
      <point x="399" y="434" type="line"/>
      <point x="385" y="356"/>
      <point x="385" y="299" type="qcurve"/>
      <point x="385" y="117"/>
      <point x="553" y="117" type="qcurve"/>
      <point x="745" y="117"/>
      <point x="745" y="406" type="qcurve"/>
      <point x="745" y="516"/>
      <point x="696" y="590" type="qcurve"/>
      <point x="641" y="674"/>
      <point x="535" y="674" type="qcurve"/>
      <point x="469" y="674"/>
      <point x="389" y="625" type="qcurve"/>
      <point x="293" y="713" type="line"/>
      <point x="725" y="1051" type="line"/>
      <point x="201" y="1051" type="line"/>
      <point x="201" y="1221" type="line"/>
      <point x="973" y="1221" type="line"/>
      <point x="973" y="1040" type="line"/>
      <point x="637" y="776" type="line"/>
      <point x="813" y="760"/>
      <point x="915" y="664" type="qcurve"/>
      <point x="1026" y="561"/>
    </contour>
  </outline>
</glyph>
<glyph name="four" format="2">
  <advance width="1194"/>
  <unicode hex="0034"/>
  <outline>
    <contour>
      <point x="1077" y="279" type="line"/>
      <point x="922" y="279" type="line"/>
      <point x="922" y="2" type="line"/>
      <point x="668" y="2" type="line"/>
      <point x="668" y="279" type="line"/>
      <point x="104" y="279" type="line"/>
      <point x="104" y="479" type="line"/>
      <point x="608" y="1221" type="line"/>
      <point x="922" y="1221" type="line"/>
      <point x="922" y="442" type="line"/>
      <point x="1077" y="442" type="line"/>
    </contour>
    <contour>
      <point x="668" y="442" type="line"/>
      <point x="668" y="999" type="line"/>
      <point x="283" y="442" type="line"/>
    </contour>
  </outline>
</glyph>
<glyph name="five" format="2">
  <advance width="1194"/>
  <unicode hex="0035"/>
  <outline>
    <contour>
      <point x="1065" y="434" type="qcurve"/>
      <point x="1065" y="211"/>
      <point x="928" y="90" type="qcurve"/>
      <point x="799" y="-25"/>
      <point x="571" y="-25" type="qcurve"/>
      <point x="406" y="-25"/>
      <point x="291" y="39" type="qcurve"/>
      <point x="150" y="117"/>
      <point x="150" y="270" type="qcurve"/>
      <point x="150" y="342"/>
      <point x="182" y="424" type="qcurve"/>
      <point x="416" y="430" type="line"/>
      <point x="395" y="358"/>
      <point x="395" y="293" type="qcurve"/>
      <point x="395" y="117"/>
      <point x="573" y="117" type="qcurve"/>
      <point x="786" y="117"/>
      <point x="786" y="426" type="qcurve"/>
      <point x="786" y="682"/>
      <point x="592" y="682" type="qcurve"/>
      <point x="467" y="682"/>
      <point x="416" y="590" type="qcurve"/>
      <point x="207" y="610" type="line"/>
      <point x="262" y="1221" type="line"/>
      <point x="981" y="1221" type="line"/>
      <point x="969" y="1051" type="line"/>
      <point x="446" y="1051" type="line"/>
      <point x="422" y="733" type="line"/>
      <point x="557" y="825"/>
      <point x="690" y="825" type="qcurve"/>
      <point x="872" y="825"/>
      <point x="1065" y="618"/>
    </contour>
  </outline>
</glyph>
<glyph name="seven" format="2">
  <advance width="1194"/>
  <unicode hex="0037"/>
  <outline>
    <contour>
      <point x="1047" y="1032" type="line"/>
      <point x="854" y="786"/>
      <point x="784" y="549" type="qcurve"/>
      <point x="725" y="344"/>
      <point x="725" y="2" type="qcurve"/>
      <point x="434" y="2" type="line"/>
      <point x="434" y="61" type="line"/>
      <point x="434" y="356"/>
      <point x="539" y="594" type="qcurve"/>
      <point x="635" y="809"/>
      <point x="848" y="1042" type="qcurve"/>
      <point x="176" y="1042" type="line"/>
      <point x="176" y="1221" type="line"/>
      <point x="1047" y="1221" type="line"/>
    </contour>
  </outline>
</glyph>
<glyph name="nine" format="2">
  <advance width="1194"/>
  <unicode hex="0039"/>
  <outline>
    <contour>
      <point x="1057" y="684" type="qcurve"/>
      <point x="1057" y="313"/>
      <point x="987" y="178" type="qcurve"/>
      <point x="883" y="-25"/>
      <point x="549" y="-25" type="qcurve"/>
      <point x="401" y="-25"/>
      <point x="301" y="27" type="qcurve"/>
      <point x="172" y="92"/>
      <point x="172" y="225" type="qcurve"/>
      <point x="172" y="262"/>
      <point x="178" y="303" type="qcurve"/>
      <point x="422" y="328" type="line"/>
      <point x="416" y="293"/>
      <point x="416" y="262" type="qcurve"/>
      <point x="416" y="109"/>
      <point x="584" y="109" type="qcurve"/>
      <point x="782" y="109"/>
      <point x="782" y="367" type="qcurve"/>
      <point x="782" y="582" type="line"/>
      <point x="666" y="455"/>
      <point x="502" y="455" type="qcurve"/>
      <point x="133" y="455"/>
      <point x="133" y="831" type="qcurve"/>
      <point x="133" y="1237"/>
      <point x="588" y="1237" type="qcurve"/>
      <point x="872" y="1237"/>
      <point x="973" y="1096" type="qcurve"/>
      <point x="1057" y="979"/>
    </contour>
    <contour>
      <point x="784" y="838" type="qcurve"/>
      <point x="784" y="1098"/>
      <point x="596" y="1098" type="qcurve"/>
      <point x="479" y="1098"/>
      <point x="436" y="1010" type="qcurve"/>
      <point x="408" y="948"/>
      <point x="408" y="817" type="qcurve"/>
      <point x="408" y="705"/>
      <point x="444" y="651" type="qcurve"/>
      <point x="489" y="588"/>
      <point x="596" y="588" type="qcurve"/>
      <point x="784" y="588"/>
    </contour>
  </outline>
</glyph>
<glyph name="less" format="2">
  <advance width="1432"/>
  <unicode hex="003C"/>
  <outline>
    <contour>
      <point x="1278" y="88" type="line"/>
      <point x="154" y="475" type="line"/>
      <point x="154" y="621" type="line"/>
      <point x="1278" y="1008" type="line"/>
      <point x="1278" y="852" type="line"/>
      <point x="387" y="549" type="line"/>
      <point x="1278" y="246" type="line"/>
    </contour>
  </outline>
</glyph>
<glyph name="greater" format="2">
  <advance width="1452"/>
  <unicode hex="003E"/>
  <outline>
    <contour>
      <point x="1309" y="475" type="line"/>
      <point x="184" y="88" type="line"/>
      <point x="184" y="246" type="line"/>
      <point x="1075" y="549" type="line"/>
      <point x="184" y="852" type="line"/>
      <point x="184" y="1008" type="line"/>
      <point x="1309" y="621" type="line"/>
    </contour>
  </outline>
</glyph>
<glyph name="G" format="2">
  <advance width="971"/>
  <unicode hex="0047"/>
  <outline>
    <contour>
      <point x="960" y="184" type="line"/>
      <point x="768" y="184" type="line"/>
      <point x="768" y="283" type="line"/>
      <point x="682" y="170"/>
      <point x="538" y="170" type="qcurve"/>
      <point x="465" y="170"/>
      <point x="397" y="209" type="qcurve"/>
      <point x="248" y="293"/>
      <point x="248" y="551" type="qcurve"/>
      <point x="248" y="788"/>
      <point x="311" y="899" type="qcurve"/>
      <point x="393" y="1051"/>
      <point x="610" y="1051" type="qcurve"/>
      <point x="735" y="1051"/>
      <point x="823" y="1004" type="qcurve"/>
      <point x="934" y="946"/>
      <point x="934" y="834" type="qcurve"/>
      <point x="934" y="788" type="line"/>
      <point x="739" y="784" type="line"/>
      <point x="743" y="825"/>
      <point x="741" y="831" type="qcurve"/>
      <point x="719" y="946"/>
      <point x="608" y="946" type="qcurve"/>
      <point x="506" y="946"/>
      <point x="473" y="817" type="qcurve"/>
      <point x="454" y="752"/>
      <point x="454" y="608" type="qcurve"/>
      <point x="454" y="473"/>
      <point x="477" y="399" type="qcurve"/>
      <point x="516" y="281"/>
      <point x="620" y="281" type="qcurve"/>
      <point x="768" y="281"/>
      <point x="768" y="489" type="qcurve"/>
      <point x="620" y="489" type="line"/>
      <point x="620" y="600" type="line"/>
      <point x="960" y="600" type="line"/>
    </contour>
  </outline>
</glyph>
<glyph name="H" format="2">
  <advance width="1038"/>
  <unicode hex="0048"/>
  <outline>
    <contour>
      <point x="954" y="184" type="line"/>
      <point x="760" y="184" type="line"/>
      <point x="760" y="596" type="line"/>
      <point x="485" y="596" type="line"/>
      <point x="485" y="184" type="line"/>
      <point x="291" y="184" type="line"/>
      <point x="291" y="1040" type="line"/>
      <point x="485" y="1040" type="line"/>
      <point x="485" y="705" type="line"/>
      <point x="760" y="705" type="line"/>
      <point x="760" y="1040" type="line"/>
      <point x="954" y="1040" type="line"/>
    </contour>
  </outline>
</glyph>
<glyph name="K" format="2">
  <advance width="1016"/>
  <unicode hex="004B"/>
  <outline>
    <contour>
      <point x="975" y="184" type="line"/>
      <point x="752" y="184" type="line"/>
      <point x="418" y="629" type="line"/>
      <point x="418" y="614" type="line"/>
      <point x="737" y="1040" type="line"/>
      <point x="963" y="1040" type="line"/>
      <point x="616" y="631" type="line"/>
    </contour>
    <contour>
      <point x="461" y="184" type="line"/>
      <point x="274" y="184" type="line"/>
      <point x="274" y="1040" type="line"/>
      <point x="461" y="1040" type="line"/>
    </contour>
  </outline>
</glyph>
<glyph name="L" format="2">
  <advance width="899"/>
  <unicode hex="004C"/>
  <outline>
    <contour>
      <point x="821" y="184" type="line"/>
      <point x="268" y="184" type="line"/>
      <point x="268" y="1040" type="line"/>
      <point x="463" y="1040" type="line"/>
      <point x="463" y="299" type="line"/>
      <point x="821" y="299" type="line"/>
    </contour>
  </outline>
</glyph>
<glyph name="M" format="2">
  <advance width="1397"/>
  <unicode hex="004D"/>
  <outline>
    <contour>
      <point x="1307" y="184" type="line"/>
      <point x="1120" y="184" type="line"/>
      <point x="1120" y="856" type="line"/>
      <point x="891" y="434" type="line"/>
      <point x="760" y="434" type="line"/>
      <point x="539" y="856" type="line"/>
      <point x="539" y="184" type="line"/>
      <point x="352" y="184" type="line"/>
      <point x="352" y="1040" type="line"/>
      <point x="594" y="1040" type="line"/>
      <point x="827" y="614" type="line"/>
      <point x="1065" y="1040" type="line"/>
      <point x="1307" y="1040" type="line"/>
    </contour>
  </outline>
</glyph>
<glyph name="N" format="2">
  <advance width="1047"/>
  <unicode hex="004E"/>
  <outline>
    <contour>
      <point x="956" y="184" type="line"/>
      <point x="793" y="184" type="line"/>
      <point x="471" y="774" type="line"/>
      <point x="471" y="184" type="line"/>
      <point x="291" y="184" type="line"/>
      <point x="291" y="1040" type="line"/>
      <point x="477" y="1040" type="line"/>
      <point x="776" y="485" type="line"/>
      <point x="776" y="1040" type="line"/>
      <point x="956" y="1040" type="line"/>
    </contour>
  </outline>
</glyph>
<glyph name="O" format="2">
  <advance width="1104"/>
  <unicode hex="004F"/>
  <outline>
    <contour>
      <point x="1008" y="578" type="qcurve"/>
      <point x="1008" y="365"/>
      <point x="936" y="272" type="qcurve"/>
      <point x="856" y="166"/>
      <point x="649" y="166" type="qcurve"/>
      <point x="442" y="166"/>
      <point x="362" y="272" type="qcurve"/>
      <point x="291" y="365"/>
      <point x="291" y="578" type="qcurve"/>
      <point x="291" y="803"/>
      <point x="356" y="911" type="qcurve"/>
      <point x="440" y="1051"/>
      <point x="649" y="1051" type="qcurve"/>
      <point x="858" y="1051"/>
      <point x="942" y="911" type="qcurve"/>
      <point x="1008" y="803"/>
    </contour>
    <contour>
      <point x="809" y="653" type="qcurve"/>
      <point x="809" y="946"/>
      <point x="649" y="946" type="qcurve"/>
      <point x="489" y="946"/>
      <point x="489" y="653" type="qcurve"/>
      <point x="489" y="469"/>
      <point x="500" y="416" type="qcurve"/>
      <point x="530" y="270"/>
      <point x="649" y="270" type="qcurve"/>
      <point x="768" y="270"/>
      <point x="799" y="416" type="qcurve"/>
      <point x="809" y="469"/>
    </contour>
  </outline>
</glyph>
<glyph name="Q" format="2">
  <advance width="1098"/>
  <unicode hex="0051"/>
  <outline>
    <contour>
      <point x="1014" y="524" type="qcurve"/>
      <point x="1014" y="356"/>
      <point x="967" y="266" type="qcurve"/>
      <point x="907" y="152"/>
      <point x="758" y="123" type="qcurve"/>
      <point x="840" y="53"/>
      <point x="1001" y="39" type="qcurve"/>
      <point x="928" y="-76" type="line"/>
      <point x="692" y="-55"/>
      <point x="588" y="119" type="qcurve"/>
      <point x="418" y="131"/>
      <point x="350" y="248" type="qcurve"/>
      <point x="297" y="342"/>
      <point x="297" y="524" type="qcurve"/>
      <point x="297" y="748"/>
      <point x="362" y="856" type="qcurve"/>
      <point x="449" y="995"/>
      <point x="655" y="995" type="qcurve"/>
      <point x="862" y="995"/>
      <point x="948" y="856" type="qcurve"/>
      <point x="1014" y="748"/>
    </contour>
    <contour>
      <point x="807" y="600" type="qcurve"/>
      <point x="807" y="727"/>
      <point x="786" y="786" type="qcurve"/>
      <point x="752" y="893"/>
      <point x="655" y="893" type="qcurve"/>
      <point x="502" y="893"/>
      <point x="502" y="602" type="qcurve"/>
      <point x="502" y="553"/>
      <point x="502" y="553" type="qcurve"/>
      <point x="500" y="479"/>
      <point x="500" y="494" type="qcurve"/>
      <point x="500" y="219"/>
      <point x="655" y="219" type="qcurve"/>
      <point x="733" y="219"/>
      <point x="772" y="276" type="qcurve"/>
      <point x="807" y="326"/>
    </contour>
  </outline>
</glyph>
<glyph name="R" format="2">
  <advance width="1061"/>
  <unicode hex="0052"/>
  <outline>
    <contour>
      <point x="981" y="184" type="qcurve"/>
      <point x="782" y="184" type="line"/>
      <point x="766" y="334" type="line"/>
      <point x="748" y="479"/>
      <point x="670" y="514" type="qcurve"/>
      <point x="635" y="530"/>
      <point x="489" y="530" type="qcurve"/>
      <point x="489" y="184" type="line"/>
      <point x="297" y="184" type="line"/>
      <point x="297" y="1040" type="line"/>
      <point x="684" y="1040" type="line"/>
      <point x="813" y="1040"/>
      <point x="891" y="983" type="qcurve"/>
      <point x="979" y="918"/>
      <point x="979" y="795" type="qcurve"/>
      <point x="979" y="623"/>
      <point x="707" y="569" type="qcurve"/>
      <point x="848" y="549"/>
      <point x="899" y="500" type="qcurve"/>
      <point x="934" y="463"/>
      <point x="946" y="375" type="qcurve"/>
      <point x="963" y="244"/>
    </contour>
    <contour>
      <point x="774" y="768" type="qcurve"/>
      <point x="774" y="936"/>
      <point x="623" y="936" type="qcurve"/>
      <point x="489" y="936" type="line"/>
      <point x="489" y="633" type="line"/>
      <point x="625" y="633" type="line"/>
      <point x="774" y="633"/>
    </contour>
  </outline>
</glyph>
<glyph name="T" format="2">
  <advance width="1028"/>
  <unicode hex="0054"/>
  <outline>
    <contour>
      <point x="950" y="924" type="line"/>
      <point x="711" y="924" type="line"/>
      <point x="711" y="184" type="line"/>
      <point x="516" y="184" type="line"/>
      <point x="516" y="924" type="line"/>
      <point x="276" y="924" type="line"/>
      <point x="276" y="1040" type="line"/>
      <point x="950" y="1040" type="line"/>
    </contour>
  </outline>
</glyph>
<glyph name="U" format="2">
  <advance width="1036"/>
  <unicode hex="0055"/>
  <outline>
    <contour>
      <point x="954" y="395" type="line"/>
      <point x="954" y="162"/>
      <point x="623" y="162" type="qcurve"/>
      <point x="291" y="162"/>
      <point x="291" y="395" type="qcurve"/>
      <point x="291" y="1034" type="line"/>
      <point x="485" y="1034" type="line"/>
      <point x="485" y="399" type="line"/>
      <point x="485" y="266"/>
      <point x="623" y="266" type="qcurve"/>
      <point x="760" y="266"/>
      <point x="760" y="399" type="qcurve"/>
      <point x="760" y="1034" type="line"/>
      <point x="954" y="1034" type="line"/>
    </contour>
  </outline>
</glyph>
<glyph name="V" format="2">
  <advance width="1020"/>
  <unicode hex="0056"/>
  <outline>
    <contour>
      <point x="1000" y="1040" type="line"/>
      <point x="758" y="184" type="line"/>
      <point x="500" y="184" type="line"/>
      <point x="252" y="1040" type="line"/>
      <point x="457" y="1040" type="line"/>
      <point x="629" y="336" type="line"/>
      <point x="797" y="1040" type="line"/>
    </contour>
  </outline>
</glyph>
<glyph name="Z" format="2">
  <advance width="999"/>
  <unicode hex="005A"/>
  <outline>
    <contour>
      <point x="922" y="184" type="line"/>
      <point x="268" y="184" type="line"/>
      <point x="268" y="346" type="line"/>
      <point x="707" y="924" type="line"/>
      <point x="295" y="924" type="line"/>
      <point x="295" y="1040" type="line"/>
      <point x="918" y="1040" type="line"/>
      <point x="918" y="905" type="line"/>
      <point x="459" y="299" type="line"/>
      <point x="922" y="299" type="line"/>
    </contour>
  </outline>
</glyph>
<glyph name="bracketleft" format="2">
  <advance width="1055"/>
  <unicode hex="005B"/>
  <outline>
    <contour>
      <point x="883" y="-287" type="line"/>
      <point x="242" y="-287" type="line"/>
      <point x="242" y="1479" type="line"/>
      <point x="883" y="1479" type="line"/>
      <point x="883" y="1346" type="line"/>
      <point x="506" y="1346" type="line"/>
      <point x="506" y="-154" type="line"/>
      <point x="883" y="-154" type="line"/>
    </contour>
  </outline>
</glyph>
<glyph name="grave" format="2">
  <advance width="682"/>
  <unicode hex="0060"/>
  <outline>
    <contour>
      <point x="539" y="1087" type="line"/>
      <point x="391" y="1087" type="line"/>
      <point x="139" y="1329" type="line"/>
      <point x="406" y="1329" type="line"/>
    </contour>
  </outline>
</glyph>
<glyph name="a" format="2">
  <advance width="1016"/>
  <unicode hex="0061"/>
  <outline>
    <contour>
      <point x="977" y="246" type="line"/>
      <point x="801" y="246" type="line"/>
      <point x="770" y="387" type="line"/>
      <point x="510" y="387" type="line"/>
      <point x="477" y="246" type="line"/>
      <point x="303" y="246" type="line"/>
      <point x="524" y="979" type="line"/>
      <point x="752" y="979" type="line"/>
    </contour>
    <contour>
      <point x="756" y="487" type="line"/>
      <point x="637" y="874" type="line"/>
      <point x="524" y="487" type="line"/>
    </contour>
  </outline>
</glyph>
<glyph name="c" format="2">
  <advance width="1028"/>
  <unicode hex="0063"/>
  <outline>
    <contour>
      <point x="961" y="416" type="qcurve"/>
      <point x="958" y="317"/>
      <point x="852" y="268" type="qcurve"/>
      <point x="772" y="229"/>
      <point x="659" y="229" type="qcurve"/>
      <point x="489" y="229"/>
      <point x="344" y="383"/>
      <point x="344" y="557" type="qcurve"/>
      <point x="344" y="774"/>
      <point x="397" y="864" type="qcurve"/>
      <point x="469" y="987"/>
      <point x="670" y="987" type="qcurve"/>
      <point x="758" y="987"/>
      <point x="827" y="961" type="qcurve"/>
      <point x="922" y="926"/>
      <point x="936" y="856" type="qcurve"/>
      <point x="940" y="838"/>
      <point x="926" y="772" type="qcurve"/>
      <point x="766" y="772" type="line"/>
      <point x="772" y="825"/>
      <point x="770" y="836" type="qcurve"/>
      <point x="766" y="879"/>
      <point x="731" y="891" type="qcurve"/>
      <point x="711" y="899"/>
      <point x="657" y="899" type="qcurve"/>
      <point x="522" y="899"/>
      <point x="522" y="674" type="qcurve"/>
      <point x="522" y="520" type="line"/>
      <point x="522" y="317"/>
      <point x="655" y="317" type="qcurve"/>
      <point x="801" y="317"/>
      <point x="795" y="422" type="qcurve"/>
      <point x="799" y="444"/>
      <point x="803" y="492" type="qcurve"/>
      <point x="958" y="492" type="line"/>
      <point x="961" y="481"/>
    </contour>
  </outline>
</glyph>
<glyph name="f" format="2">
  <advance width="887"/>
  <unicode hex="0066"/>
  <outline>
    <contour>
      <point x="821" y="881" type="line"/>
      <point x="485" y="881" type="line"/>
      <point x="485" y="653" type="line"/>
      <point x="760" y="653" type="line"/>
      <point x="760" y="559" type="line"/>
      <point x="485" y="559" type="line"/>
      <point x="485" y="246" type="line"/>
      <point x="317" y="246" type="line"/>
      <point x="317" y="979" type="line"/>
      <point x="821" y="979" type="line"/>
    </contour>
  </outline>
</glyph>
<glyph name="p" format="2">
  <advance width="1001"/>
  <unicode hex="0070"/>
  <outline>
    <contour>
      <point x="938" y="723" type="qcurve"/>
      <point x="938" y="506"/>
      <point x="647" y="506" type="qcurve"/>
      <point x="571" y="506"/>
      <point x="510" y="512" type="qcurve"/>
      <point x="510" y="246" type="line"/>
      <point x="344" y="246" type="line"/>
      <point x="344" y="979" type="line"/>
      <point x="655" y="979" type="line"/>
      <point x="938" y="979"/>
    </contour>
    <contour>
      <point x="760" y="727" type="qcurve"/>
      <point x="760" y="891"/>
      <point x="594" y="891" type="qcurve"/>
      <point x="510" y="891" type="line"/>
      <point x="510" y="596" type="line"/>
      <point x="590" y="596" type="line"/>
      <point x="760" y="596"/>
    </contour>
  </outline>
</glyph>
<glyph name="v" format="2">
  <advance width="961"/>
  <unicode hex="0076"/>
  <outline>
    <contour>
      <point x="942" y="979" type="line"/>
      <point x="733" y="246" type="line"/>
      <point x="514" y="246" type="line"/>
      <point x="301" y="979" type="line"/>
      <point x="475" y="979" type="line"/>
      <point x="625" y="375" type="line"/>
      <point x="768" y="979" type="line"/>
    </contour>
  </outline>
</glyph>
<glyph name="w" format="2">
  <advance width="1393"/>
  <unicode hex="0077"/>
  <outline>
    <contour>
      <point x="1339" y="979" type="line"/>
      <point x="1178" y="246" type="line"/>
      <point x="989" y="246" type="line"/>
      <point x="887" y="709" type="line"/>
      <point x="786" y="246" type="line"/>
      <point x="596" y="246" type="line"/>
      <point x="420" y="979" type="line"/>
      <point x="584" y="979" type="line"/>
      <point x="700" y="408" type="line"/>
      <point x="823" y="893" type="line"/>
      <point x="963" y="893" type="line"/>
      <point x="1075" y="406" type="line"/>
      <point x="1192" y="979" type="line"/>
    </contour>
  </outline>
</glyph>
<glyph name="x" format="2">
  <advance width="991"/>
  <unicode hex="0078"/>
  <outline>
    <contour>
      <point x="928" y="246" type="line"/>
      <point x="750" y="246" type="line"/>
      <point x="604" y="541" type="line"/>
      <point x="457" y="246" type="line"/>
      <point x="297" y="246" type="line"/>
      <point x="522" y="647" type="line"/>
      <point x="332" y="979" type="line"/>
      <point x="508" y="979" type="line"/>
      <point x="621" y="735" type="line"/>
      <point x="735" y="979" type="line"/>
      <point x="893" y="979" type="line"/>
      <point x="700" y="647" type="line"/>
    </contour>
  </outline>
</glyph>
<glyph name="y" format="2">
  <advance width="1024"/>
  <unicode hex="0079"/>
  <outline>
    <contour>
      <point x="981" y="979" type="line"/>
      <point x="733" y="535" type="line"/>
      <point x="733" y="246" type="line"/>
      <point x="567" y="246" type="line"/>
      <point x="567" y="537" type="line"/>
      <point x="322" y="979" type="line"/>
      <point x="500" y="979" type="line"/>
      <point x="659" y="657" type="line"/>
      <point x="823" y="979" type="line"/>
    </contour>
  </outline>
</glyph>
<glyph name="z" format="2">
  <advance width="846"/>
  <unicode hex="007A"/>
  <outline>
    <contour>
      <point x="851" y="246" type="line"/>
      <point x="287" y="246" type="line"/>
      <point x="287" y="383" type="line"/>
      <point x="664" y="879" type="line"/>
      <point x="312" y="879" type="line"/>
      <point x="312" y="979" type="line"/>
      <point x="844" y="979" type="line"/>
      <point x="844" y="862" type="line"/>
      <point x="451" y="344" type="line"/>
      <point x="851" y="344" type="line"/>
    </contour>
  </outline>
</glyph>
<glyph name="braceleft" format="2">
  <advance width="1026"/>
  <unicode hex="007B"/>
  <outline>
    <contour>
      <point x="905" y="-297" type="line"/>
      <point x="829" y="-297" type="line"/>
      <point x="711" y="-297"/>
      <point x="653" y="-281" type="qcurve"/>
      <point x="483" y="-233"/>
      <point x="457" y="-27" type="qcurve"/>
      <point x="449" y="152"/>
      <point x="438" y="328" type="qcurve"/>
      <point x="408" y="510"/>
      <point x="221" y="514" type="qcurve"/>
      <point x="221" y="666" type="line"/>
      <point x="387" y="674"/>
      <point x="428" y="829" type="qcurve"/>
      <point x="440" y="870"/>
      <point x="453" y="1149" type="qcurve"/>
      <point x="463" y="1348"/>
      <point x="627" y="1479"/>
      <point x="905" y="1479" type="qcurve"/>
      <point x="905" y="1346" type="line"/>
      <point x="752" y="1348"/>
      <point x="705" y="1286" type="qcurve"/>
      <point x="684" y="1262"/>
      <point x="684" y="1100" type="qcurve"/>
      <point x="682" y="913"/>
      <point x="653" y="813" type="qcurve"/>
      <point x="604" y="649"/>
      <point x="467" y="590" type="qcurve"/>
      <point x="612" y="524"/>
      <point x="657" y="352" type="qcurve"/>
      <point x="680" y="268"/>
      <point x="686" y="51" type="qcurve"/>
      <point x="690" y="-111"/>
      <point x="780" y="-168"/>
      <point x="905" y="-166" type="qcurve"/>
    </contour>
  </outline>
</glyph>
<glyph name="braceright" format="2">
  <advance width="1012"/>
  <unicode hex="007D"/>
  <outline>
    <contour>
      <point x="803" y="514" type="line"/>
      <point x="637" y="506"/>
      <point x="596" y="348" type="qcurve"/>
      <point x="582" y="303"/>
      <point x="571" y="31" type="qcurve"/>
      <point x="563" y="-168"/>
      <point x="487" y="-229" type="qcurve"/>
      <point x="401" y="-297"/>
      <point x="119" y="-297" type="qcurve"/>
      <point x="119" y="-166" type="line"/>
      <point x="274" y="-168"/>
      <point x="319" y="-106" type="qcurve"/>
      <point x="340" y="-78"/>
      <point x="340" y="84" type="qcurve"/>
      <point x="342" y="270"/>
      <point x="371" y="369" type="qcurve"/>
      <point x="420" y="528"/>
      <point x="557" y="590" type="qcurve"/>
      <point x="410" y="655"/>
      <point x="367" y="827" type="qcurve"/>
      <point x="346" y="907"/>
      <point x="340" y="1126" type="qcurve"/>
      <point x="338" y="1288"/>
      <point x="244" y="1348"/>
      <point x="119" y="1346" type="qcurve"/>
      <point x="119" y="1477" type="line"/>
      <point x="154" y="1477" type="line"/>
      <point x="418" y="1477"/>
      <point x="500" y="1397" type="qcurve"/>
      <point x="559" y="1337"/>
      <point x="569" y="1143" type="qcurve"/>
      <point x="582" y="893"/>
      <point x="602" y="827" type="qcurve"/>
      <point x="647" y="674"/>
      <point x="803" y="666" type="qcurve"/>
    </contour>
  </outline>
</glyph>
<glyph name="currency" format="2">
  <advance width="1024"/>
  <unicode hex="00A4"/>
  <outline>
    <contour>
      <point x="944" y="295" type="line"/>
      <point x="860" y="211" type="line"/>
      <point x="733" y="340" type="line"/>
      <point x="627" y="266"/>
      <point x="508" y="266" type="qcurve"/>
      <point x="391" y="266"/>
      <point x="285" y="340" type="qcurve"/>
      <point x="156" y="211" type="line"/>
      <point x="74" y="295" type="line"/>
      <point x="203" y="422" type="line"/>
      <point x="131" y="532"/>
      <point x="131" y="645" type="qcurve"/>
      <point x="131" y="758"/>
      <point x="203" y="868" type="qcurve"/>
      <point x="74" y="995" type="line"/>
      <point x="156" y="1077" type="line"/>
      <point x="285" y="950" type="line"/>
      <point x="391" y="1024"/>
      <point x="508" y="1024" type="qcurve"/>
      <point x="627" y="1024"/>
      <point x="733" y="950" type="qcurve"/>
      <point x="860" y="1077" type="line"/>
      <point x="944" y="995" type="line"/>
      <point x="815" y="868" type="line"/>
      <point x="887" y="758"/>
      <point x="887" y="645" type="qcurve"/>
      <point x="887" y="532"/>
      <point x="815" y="422" type="qcurve"/>
    </contour>
    <contour>
      <point x="770" y="645" type="qcurve"/>
      <point x="770" y="756"/>
      <point x="616" y="907"/>
      <point x="506" y="907" type="qcurve"/>
      <point x="395" y="907"/>
      <point x="246" y="756"/>
      <point x="246" y="645" type="qcurve"/>
      <point x="246" y="537"/>
      <point x="397" y="383"/>
      <point x="506" y="383" type="qcurve"/>
      <point x="618" y="383"/>
      <point x="770" y="532"/>
    </contour>
  </outline>
</glyph>
<glyph name="logicalnot" format="2">
  <advance width="1153"/>
  <unicode hex="00AC"/>
  <outline>
    <contour>
      <point x="866" y="180" type="line"/>
      <point x="756" y="180" type="line"/>
      <point x="756" y="600" type="line"/>
      <point x="190" y="600" type="line"/>
      <point x="190" y="705" type="line"/>
      <point x="866" y="705" type="line"/>
    </contour>
  </outline>
</glyph>
<glyph name="registered" format="2">
  <advance width="1305"/>
  <unicode hex="00AE"/>
  <outline>
    <contour>
      <point x="1133" y="836" type="qcurve"/>
      <point x="1133" y="633"/>
      <point x="856" y="356"/>
      <point x="653" y="356" type="qcurve"/>
      <point x="453" y="356"/>
      <point x="174" y="635"/>
      <point x="174" y="836" type="qcurve"/>
      <point x="174" y="1036"/>
      <point x="453" y="1313"/>
      <point x="653" y="1313" type="qcurve"/>
      <point x="854" y="1313"/>
      <point x="1133" y="1036"/>
    </contour>
    <contour>
      <point x="1096" y="836" type="qcurve"/>
      <point x="1096" y="1020"/>
      <point x="838" y="1276"/>
      <point x="653" y="1276" type="qcurve"/>
      <point x="469" y="1276"/>
      <point x="213" y="1020"/>
      <point x="213" y="836" type="qcurve"/>
      <point x="213" y="651"/>
      <point x="469" y="395"/>
      <point x="653" y="395" type="qcurve"/>
      <point x="840" y="395"/>
      <point x="1096" y="649"/>
    </contour>
    <contour>
      <point x="903" y="551" type="qcurve"/>
      <point x="811" y="551" type="line"/>
      <point x="606" y="829" type="line"/>
      <point x="532" y="829" type="line"/>
      <point x="532" y="602" type="line"/>
      <point x="532" y="563"/>
      <point x="580" y="551" type="qcurve"/>
      <point x="418" y="551" type="line"/>
      <point x="459" y="567"/>
      <point x="459" y="647" type="qcurve"/>
      <point x="459" y="1044" type="line"/>
      <point x="459" y="1114"/>
      <point x="414" y="1124" type="qcurve"/>
      <point x="651" y="1124" type="line"/>
      <point x="725" y="1124"/>
      <point x="778" y="1092" type="qcurve"/>
      <point x="842" y="1053"/>
      <point x="842" y="983" type="qcurve"/>
      <point x="842" y="879"/>
      <point x="678" y="838" type="qcurve"/>
      <point x="838" y="612" type="line"/>
      <point x="872" y="563"/>
    </contour>
    <contour>
      <point x="758" y="973" type="qcurve"/>
      <point x="758" y="1094"/>
      <point x="604" y="1094" type="qcurve"/>
      <point x="567" y="1094"/>
      <point x="532" y="1081" type="qcurve"/>
      <point x="532" y="864" type="line"/>
      <point x="645" y="866"/>
      <point x="676" y="874" type="qcurve"/>
      <point x="758" y="897"/>
    </contour>
  </outline>
</glyph>
<glyph name="quotedblleft" format="2">
  <advance width="1051"/>
  <unicode hex="201C"/>
  <outline>
    <contour>
      <point x="958" y="1180" type="line"/>
      <point x="958" y="944"/>
      <point x="677" y="899" type="qcurve"/>
      <point x="677" y="997" type="line"/>
      <point x="827" y="1028"/>
      <point x="825" y="1171" type="qcurve"/>
      <point x="677" y="1171" type="line"/>
      <point x="677" y="1423" type="line"/>
      <point x="958" y="1423" type="line"/>
    </contour>
    <contour>
      <point x="468" y="1180" type="line"/>
      <point x="468" y="944"/>
      <point x="188" y="899" type="qcurve"/>
      <point x="188" y="997" type="line"/>
      <point x="335" y="1030"/>
      <point x="335" y="1171" type="qcurve"/>
      <point x="188" y="1171" type="line"/>
      <point x="188" y="1423" type="line"/>
      <point x="468" y="1423" type="line"/>
    </contour>
  </outline>
</glyph>
<glyph name="quotedblright" format="2">
  <advance width="1051"/>
  <unicode hex="201D"/>
  <outline>
    <contour>
      <point x="901" y="1012" type="line"/>
      <point x="620" y="1012" type="line"/>
      <point x="620" y="1255" type="line"/>
      <point x="620" y="1493"/>
      <point x="901" y="1538" type="qcurve"/>
      <point x="901" y="1440" type="line"/>
      <point x="751" y="1407"/>
      <point x="753" y="1264" type="qcurve"/>
      <point x="901" y="1264" type="line"/>
    </contour>
    <contour>
      <point x="411" y="1012" type="line"/>
      <point x="131" y="1012" type="line"/>
      <point x="131" y="1255" type="line"/>
      <point x="131" y="1493"/>
      <point x="411" y="1538" type="qcurve"/>
      <point x="411" y="1440" type="line"/>
      <point x="262" y="1407"/>
      <point x="264" y="1264" type="qcurve"/>
      <point x="411" y="1264" type="line"/>
    </contour>
  </outline>
</glyph>
<glyph name="bullet" format="2">
  <advance width="1417"/>
  <unicode hex="2022"/>
  <outline>
    <contour>
      <point x="1106" y="666" type="qcurve"/>
      <point x="1106" y="518"/>
      <point x="971" y="426" type="qcurve"/>
      <point x="852" y="342"/>
      <point x="698" y="342" type="qcurve"/>
      <point x="551" y="342"/>
      <point x="436" y="428" type="qcurve"/>
      <point x="307" y="522"/>
      <point x="307" y="664" type="qcurve"/>
      <point x="307" y="811"/>
      <point x="438" y="903" type="qcurve"/>
      <point x="555" y="987"/>
      <point x="709" y="987" type="qcurve"/>
      <point x="856" y="987"/>
      <point x="975" y="901" type="qcurve"/>
      <point x="1106" y="807"/>
    </contour>
  </outline>
</glyph>
<glyph name="dblanglebracketleft" format="2">
  <advance width="1100"/>
  <unicode hex="300A"/>
  <outline>
    <contour>
      <point x="1028" y="29" type="line"/>
      <point x="926" y="231"/>
      <point x="811" y="464"/>
      <point x="709" y="666" type="curve"/>
      <point x="1028" y="1303" type="line"/>
      <point x="992" y="1321"/>
      <point x="954" y="1338"/>
      <point x="918" y="1356" type="curve"/>
      <point x="571" y="666" type="line"/>
      <point x="918" y="-22" type="line"/>
    </contour>
    <contour>
      <point x="747" y="29" type="line"/>
      <point x="646" y="231"/>
      <point x="530" y="464"/>
      <point x="428" y="666" type="curve"/>
      <point x="535" y="878"/>
      <point x="641" y="1091"/>
      <point x="747" y="1303" type="curve"/>
      <point x="638" y="1356" type="line"/>
      <point x="291" y="666" type="line"/>
      <point x="638" y="-22" type="line"/>
    </contour>
  </outline>
</glyph>
<glyph name="uniA4D2" format="2">
  <advance width="1276"/>
  <unicode hex="A4D2"/>
  <outline>
    <contour>
      <point x="1120" y="2" type="line"/>
      <point x="600" y="2" type="line"/>
      <point x="133" y="2"/>
      <point x="133" y="428" type="qcurve"/>
      <point x="133" y="791"/>
      <point x="616" y="791" type="qcurve"/>
      <point x="741" y="791"/>
      <point x="844" y="782" type="qcurve"/>
      <point x="844" y="1223" type="line"/>
      <point x="1120" y="1223" type="line"/>
    </contour>
    <contour>
      <point x="844" y="152" type="line"/>
      <point x="844" y="641" type="line"/>
      <point x="711" y="641" type="line"/>
      <point x="430" y="641"/>
      <point x="430" y="424" type="qcurve"/>
      <point x="430" y="276"/>
      <point x="557" y="152"/>
      <point x="705" y="152" type="qcurve"/>
    </contour>
  </outline>
</glyph>
<glyph name="uniA4D3" format="2">
  <advance width="1241"/>
  <unicode hex="A4D3"/>
  <outline>
    <contour>
      <point x="1135" y="580" type="qcurve"/>
      <point x="1135" y="293"/>
      <point x="1028" y="156" type="qcurve"/>
      <point x="907" y="2"/>
      <point x="629" y="2" type="qcurve"/>
      <point x="150" y="2" type="line"/>
      <point x="150" y="1223" type="line"/>
      <point x="608" y="1223" type="line"/>
      <point x="1135" y="1223"/>
    </contour>
    <contour>
      <point x="838" y="526" type="qcurve"/>
      <point x="838" y="948"/>
      <point x="729" y="1030" type="qcurve"/>
      <point x="670" y="1075"/>
      <point x="582" y="1075" type="qcurve"/>
      <point x="426" y="1075" type="line"/>
      <point x="426" y="152" type="line"/>
      <point x="608" y="152" type="line"/>
      <point x="750" y="152"/>
      <point x="803" y="279" type="qcurve"/>
      <point x="838" y="362"/>
    </contour>
  </outline>
</glyph>
<glyph name="uniA4D4" format="2">
  <advance width="1206"/>
  <unicode hex="A4D4"/>
  <outline>
    <contour>
      <point x="1096" y="1057" type="line"/>
      <point x="752" y="1057" type="line"/>
      <point x="752" y="2" type="line"/>
      <point x="475" y="2" type="line"/>
      <point x="475" y="1057" type="line"/>
      <point x="131" y="1057" type="line"/>
      <point x="131" y="1223" type="line"/>
      <point x="1096" y="1223" type="line"/>
    </contour>
  </outline>
</glyph>
<glyph name="uniA4D6" format="2">
  <advance width="1141"/>
  <unicode hex="A4D6"/>
  <outline>
    <contour>
      <point x="1127" y="2" type="line"/>
      <point x="852" y="2" type="line"/>
      <point x="852" y="143" type="line"/>
      <point x="730" y="-18"/>
      <point x="525" y="-18" type="qcurve"/>
      <point x="420" y="-18"/>
      <point x="322" y="37" type="qcurve"/>
      <point x="111" y="156"/>
      <point x="111" y="526" type="qcurve"/>
      <point x="111" y="866"/>
      <point x="199" y="1024" type="qcurve"/>
      <point x="320" y="1239"/>
      <point x="629" y="1239" type="qcurve"/>
      <point x="805" y="1239"/>
      <point x="930" y="1174" type="qcurve"/>
      <point x="1090" y="1090"/>
      <point x="1090" y="930" type="qcurve"/>
      <point x="1090" y="864" type="line"/>
      <point x="811" y="858" type="line"/>
      <point x="818" y="918"/>
      <point x="816" y="928" type="qcurve"/>
      <point x="797" y="1014"/>
      <point x="713" y="1092"/>
      <point x="625" y="1092" type="qcurve"/>
      <point x="478" y="1092"/>
      <point x="431" y="907" type="qcurve"/>
      <point x="406" y="811"/>
      <point x="406" y="606" type="qcurve"/>
      <point x="406" y="414"/>
      <point x="439" y="309" type="qcurve"/>
      <point x="492" y="139"/>
      <point x="644" y="139" type="qcurve"/>
      <point x="852" y="139"/>
      <point x="852" y="438" type="qcurve"/>
      <point x="642" y="438" type="line"/>
      <point x="642" y="596" type="line"/>
      <point x="1127" y="596" type="line"/>
    </contour>
  </outline>
</glyph>
<glyph name="uniA4D8" format="2">
  <advance width="1278"/>
  <unicode hex="A4D8"/>
  <outline>
    <contour>
      <point x="1116" y="2" type="line"/>
      <point x="850" y="2" type="line"/>
      <point x="850" y="512" type="line"/>
      <point x="911" y="586" type="line"/>
      <point x="453" y="2" type="line"/>
      <point x="131" y="2" type="line"/>
      <point x="629" y="588" type="line"/>
      <point x="115" y="1223" type="line"/>
      <point x="436" y="1223" type="line"/>
      <point x="850" y="655" type="line"/>
      <point x="850" y="1223" type="line"/>
      <point x="1116" y="1223" type="line"/>
    </contour>
  </outline>
</glyph>
<glyph name="uniA4DB" format="2">
  <advance width="1219"/>
  <unicode hex="A4DB"/>
  <outline>
    <contour>
      <point x="1141" y="522" type="qcurve"/>
      <point x="1141" y="231"/>
      <point x="903" y="-23"/>
      <point x="614" y="-23" type="qcurve"/>
      <point x="426" y="-23"/>
      <point x="324" y="23" type="qcurve"/>
      <point x="184" y="86"/>
      <point x="147" y="244" type="qcurve"/>
      <point x="133" y="305"/>
      <point x="150" y="371" type="qcurve"/>
      <point x="410" y="371" type="line"/>
      <point x="406" y="348"/>
      <point x="416" y="295" type="qcurve"/>
      <point x="432" y="213"/>
      <point x="455" y="184" type="qcurve"/>
      <point x="502" y="125"/>
      <point x="623" y="125" type="qcurve"/>
      <point x="844" y="125"/>
      <point x="844" y="451" type="qcurve"/>
      <point x="844" y="737" type="line"/>
      <point x="844" y="1092"/>
      <point x="621" y="1092" type="qcurve"/>
      <point x="426" y="1092"/>
      <point x="430" y="926" type="qcurve"/>
      <point x="422" y="901"/>
      <point x="418" y="840" type="qcurve"/>
      <point x="152" y="842" type="line"/>
      <point x="145" y="868"/>
      <point x="150" y="901" type="qcurve"/>
      <point x="156" y="948"/>
      <point x="156" y="961" type="qcurve"/>
      <point x="154" y="1083"/>
      <point x="299" y="1165" type="qcurve"/>
      <point x="430" y="1239"/>
      <point x="598" y="1239" type="qcurve"/>
      <point x="932" y="1239"/>
      <point x="1053" y="1034" type="qcurve"/>
      <point x="1141" y="885"/>
    </contour>
  </outline>
</glyph>
<glyph name="uniA4DC" format="2">
  <advance width="1057"/>
  <unicode hex="A4DC"/>
  <outline>
    <contour>
      <point x="1059" y="2" type="line"/>
      <point x="123" y="2" type="line"/>
      <point x="123" y="231" type="line"/>
      <point x="750" y="1057" type="line"/>
      <point x="162" y="1057" type="line"/>
      <point x="162" y="1223" type="line"/>
      <point x="1051" y="1223" type="line"/>
      <point x="1051" y="1030" type="line"/>
      <point x="395" y="166" type="line"/>
      <point x="1059" y="166" type="line"/>
    </contour>
  </outline>
</glyph>
<glyph name="uniA4DD" format="2">
  <advance width="1098"/>
  <unicode hex="A4DD"/>
  <outline>
    <contour>
      <point x="989" y="1059" type="line"/>
      <point x="428" y="1059" type="line"/>
      <point x="428" y="680" type="line"/>
      <point x="887" y="680" type="line"/>
      <point x="887" y="522" type="line"/>
      <point x="428" y="522" type="line"/>
      <point x="428" y="2" type="line"/>
      <point x="150" y="2" type="line"/>
      <point x="150" y="1223" type="line"/>
      <point x="989" y="1223" type="line"/>
    </contour>
  </outline>
</glyph>
<glyph name="uniA4DE" format="2">
  <advance width="1124"/>
  <unicode hex="A4DE"/>
  <outline>
    <contour>
      <point x="981" y="2" type="line"/>
      <point x="141" y="2" type="line"/>
      <point x="141" y="166" type="line"/>
      <point x="702" y="166" type="line"/>
      <point x="702" y="547" type="line"/>
      <point x="244" y="547" type="line"/>
      <point x="244" y="702" type="line"/>
      <point x="702" y="702" type="line"/>
      <point x="702" y="1223" type="line"/>
      <point x="981" y="1223" type="line"/>
    </contour>
  </outline>
</glyph>
<glyph name="uniA4E0" format="2">
  <advance width="1229"/>
  <unicode hex="A4E0"/>
  <outline>
    <contour>
      <point x="1098" y="2" type="line"/>
      <point x="864" y="2" type="line"/>
      <point x="406" y="844" type="line"/>
      <point x="406" y="2" type="line"/>
      <point x="150" y="2" type="line"/>
      <point x="150" y="1223" type="line"/>
      <point x="416" y="1223" type="line"/>
      <point x="842" y="432" type="line"/>
      <point x="842" y="1223" type="line"/>
      <point x="1098" y="1223" type="line"/>
    </contour>
  </outline>
</glyph>
<glyph name="uniA4E1" format="2">
  <advance width="1051"/>
  <unicode hex="A4E1"/>
  <outline>
    <contour>
      <point x="940" y="2" type="line"/>
      <point x="150" y="2" type="line"/>
      <point x="150" y="1223" type="line"/>
      <point x="428" y="1223" type="line"/>
      <point x="428" y="166" type="line"/>
      <point x="940" y="166" type="line"/>
    </contour>
  </outline>
</glyph>
<glyph name="uniA4E2" format="2">
  <advance width="1217"/>
  <unicode hex="A4E2"/>
  <outline>
    <contour>
      <point x="1106" y="336" type="qcurve"/>
      <point x="1106" y="143"/>
      <point x="944" y="51" type="qcurve"/>
      <point x="815" y="-23"/>
      <point x="606" y="-23" type="qcurve"/>
      <point x="424" y="-23"/>
      <point x="303" y="47" type="qcurve"/>
      <point x="154" y="133"/>
      <point x="154" y="301" type="qcurve"/>
      <point x="154" y="348"/>
      <point x="168" y="406" type="qcurve"/>
      <point x="416" y="414" type="line"/>
      <point x="408" y="369"/>
      <point x="408" y="328" type="qcurve"/>
      <point x="408" y="121"/>
      <point x="623" y="121" type="qcurve"/>
      <point x="827" y="121"/>
      <point x="827" y="301" type="qcurve"/>
      <point x="827" y="422"/>
      <point x="653" y="506" type="qcurve"/>
      <point x="653" y="506"/>
      <point x="334" y="653" type="qcurve"/>
      <point x="160" y="756"/>
      <point x="160" y="905" type="qcurve"/>
      <point x="160" y="1079"/>
      <point x="315" y="1167" type="qcurve"/>
      <point x="440" y="1239"/>
      <point x="629" y="1239" type="qcurve"/>
      <point x="776" y="1239"/>
      <point x="897" y="1176" type="qcurve"/>
      <point x="1047" y="1098"/>
      <point x="1047" y="965" type="qcurve"/>
      <point x="1047" y="915"/>
      <point x="1034" y="860" type="qcurve"/>
      <point x="786" y="856" type="line"/>
      <point x="791" y="885"/>
      <point x="791" y="907" type="qcurve"/>
      <point x="791" y="993"/>
      <point x="692" y="1096"/>
      <point x="606" y="1096" type="qcurve"/>
      <point x="535" y="1096"/>
      <point x="428" y="1018"/>
      <point x="428" y="948" type="qcurve"/>
      <point x="428" y="842"/>
      <point x="604" y="758" type="qcurve"/>
      <point x="696" y="715"/>
      <point x="930" y="606" type="qcurve"/>
      <point x="1106" y="498"/>
    </contour>
  </outline>
</glyph>
<glyph name="uniA4E3" format="2">
  <advance width="1241"/>
  <unicode hex="A4E3"/>
  <outline>
    <contour>
      <point x="1128" y="2" type="qcurve"/>
      <point x="844" y="2" type="line"/>
      <point x="819" y="215" type="line"/>
      <point x="803" y="362"/>
      <point x="764" y="410" type="qcurve"/>
      <point x="711" y="475"/>
      <point x="608" y="489" type="qcurve"/>
      <point x="573" y="496"/>
      <point x="426" y="496" type="qcurve"/>
      <point x="426" y="2" type="line"/>
      <point x="150" y="2" type="line"/>
      <point x="150" y="1223" type="line"/>
      <point x="705" y="1223" type="line"/>
      <point x="889" y="1223"/>
      <point x="999" y="1141" type="qcurve"/>
      <point x="1124" y="1051"/>
      <point x="1124" y="872" type="qcurve"/>
      <point x="1124" y="721"/>
      <point x="997" y="641" type="qcurve"/>
      <point x="909" y="586"/>
      <point x="735" y="551" type="qcurve"/>
      <point x="938" y="520"/>
      <point x="1010" y="451" type="qcurve"/>
      <point x="1061" y="399"/>
      <point x="1077" y="272" type="qcurve"/>
      <point x="1100" y="86"/>
    </contour>
    <contour>
      <point x="834" y="836" type="qcurve"/>
      <point x="834" y="1075"/>
      <point x="614" y="1075" type="qcurve"/>
      <point x="426" y="1075" type="line"/>
      <point x="426" y="643" type="line"/>
      <point x="618" y="643" type="line"/>
      <point x="715" y="643"/>
      <point x="834" y="741"/>
    </contour>
  </outline>
</glyph>
<glyph name="uniA4E4" format="2">
  <advance width="1272"/>
  <unicode hex="A4E4"/>
  <outline>
    <contour>
      <point x="1128" y="2" type="line"/>
      <point x="573" y="2" type="line"/>
      <point x="389" y="2"/>
      <point x="279" y="84" type="qcurve"/>
      <point x="154" y="176"/>
      <point x="154" y="354" type="qcurve"/>
      <point x="154" y="602"/>
      <point x="543" y="674" type="qcurve"/>
      <point x="338" y="705"/>
      <point x="268" y="774" type="qcurve"/>
      <point x="217" y="825"/>
      <point x="201" y="952" type="qcurve"/>
      <point x="178" y="1141"/>
      <point x="150" y="1223" type="qcurve"/>
      <point x="436" y="1223" type="line"/>
      <point x="442" y="1151"/>
      <point x="459" y="1012" type="qcurve"/>
      <point x="473" y="905"/>
      <point x="492" y="860" type="qcurve"/>
      <point x="522" y="784"/>
      <point x="596" y="754" type="qcurve"/>
      <point x="643" y="731"/>
      <point x="805" y="731" type="qcurve"/>
      <point x="854" y="731" type="line"/>
      <point x="854" y="1223" type="line"/>
      <point x="1128" y="1223" type="line"/>
    </contour>
    <contour>
      <point x="854" y="152" type="line"/>
      <point x="854" y="582" type="line"/>
      <point x="662" y="582" type="line"/>
      <point x="565" y="582"/>
      <point x="446" y="483"/>
      <point x="446" y="389" type="qcurve"/>
      <point x="446" y="152"/>
      <point x="666" y="152" type="qcurve"/>
    </contour>
  </outline>
</glyph>
<glyph name="uniA4E6" format="2">
  <advance width="1200"/>
  <unicode hex="A4E6"/>
  <outline>
    <contour>
      <point x="1169" y="1223" type="line"/>
      <point x="823" y="2" type="line"/>
      <point x="457" y="2" type="line"/>
      <point x="102" y="1223" type="line"/>
      <point x="393" y="1223" type="line"/>
      <point x="641" y="217" type="line"/>
      <point x="880" y="1223" type="line"/>
    </contour>
  </outline>
</glyph>
<glyph name="uniA4E7" format="2">
  <advance width="1217"/>
  <unicode hex="A4E7"/>
  <outline>
    <contour>
      <point x="1096" y="2" type="line"/>
      <point x="819" y="2" type="line"/>
      <point x="819" y="590" type="line"/>
      <point x="426" y="590" type="line"/>
      <point x="426" y="2" type="line"/>
      <point x="150" y="2" type="line"/>
      <point x="150" y="1223" type="line"/>
      <point x="426" y="1223" type="line"/>
      <point x="426" y="745" type="line"/>
      <point x="819" y="745" type="line"/>
      <point x="819" y="1223" type="line"/>
      <point x="1096" y="1223" type="line"/>
    </contour>
  </outline>
</glyph>
<glyph name="uniA4E9" format="2">
  <advance width="1100"/>
  <unicode hex="A4E9"/>
  <outline>
    <contour>
      <point x="987" y="950" type="qcurve"/>
      <point x="987" y="870"/>
      <point x="944" y="741" type="qcurve"/>
      <point x="705" y="739" type="line"/>
      <point x="721" y="825"/>
      <point x="721" y="901" type="qcurve"/>
      <point x="721" y="1092"/>
      <point x="571" y="1092" type="qcurve"/>
      <point x="438" y="1092"/>
      <point x="438" y="952" type="qcurve"/>
      <point x="438" y="12" type="line"/>
      <point x="160" y="12" type="line"/>
      <point x="160" y="965" type="line"/>
      <point x="160" y="1260"/>
      <point x="569" y="1260" type="qcurve"/>
      <point x="741" y="1260"/>
      <point x="852" y="1192" type="qcurve"/>
      <point x="987" y="1110"/>
    </contour>
  </outline>
</glyph>
<glyph name="uniA4EA" format="2">
  <advance width="1735"/>
  <unicode hex="A4EA"/>
  <outline>
    <contour>
      <point x="1645" y="1223" type="line"/>
      <point x="1376" y="2" type="line"/>
      <point x="1061" y="2" type="line"/>
      <point x="893" y="772" type="line"/>
      <point x="723" y="2" type="line"/>
      <point x="406" y="2" type="line"/>
      <point x="115" y="1223" type="line"/>
      <point x="387" y="1223" type="line"/>
      <point x="582" y="272" type="line"/>
      <point x="784" y="1079" type="line"/>
      <point x="1018" y="1079" type="line"/>
      <point x="1204" y="268" type="line"/>
      <point x="1401" y="1223" type="line"/>
    </contour>
  </outline>
</glyph>
<glyph name="uniA4ED" format="2">
  <advance width="1227"/>
  <unicode hex="A4ED"/>
  <outline>
    <contour>
      <point x="1118" y="2" type="line"/>
      <point x="651" y="2" type="line"/>
      <point x="461" y="2"/>
      <point x="338" y="74" type="qcurve"/>
      <point x="184" y="162"/>
      <point x="184" y="338" type="qcurve"/>
      <point x="184" y="535"/>
      <point x="508" y="602" type="qcurve"/>
      <point x="133" y="674"/>
      <point x="133" y="911" type="qcurve"/>
      <point x="133" y="1223"/>
      <point x="575" y="1223" type="qcurve"/>
      <point x="1118" y="1223" type="line"/>
    </contour>
    <contour>
      <point x="842" y="680" type="line"/>
      <point x="842" y="1073" type="line"/>
      <point x="625" y="1073" type="line"/>
      <point x="430" y="1073"/>
      <point x="430" y="885" type="qcurve"/>
      <point x="430" y="795"/>
      <point x="547" y="680"/>
      <point x="637" y="680" type="qcurve"/>
    </contour>
    <contour>
      <point x="842" y="150" type="line"/>
      <point x="842" y="528" type="line"/>
      <point x="659" y="528" type="line"/>
      <point x="584" y="528"/>
      <point x="467" y="434"/>
      <point x="467" y="360" type="qcurve"/>
      <point x="467" y="150"/>
      <point x="672" y="150" type="qcurve"/>
    </contour>
  </outline>
</glyph>
<glyph name="uniA4EF" format="2">
  <advance width="1182"/>
  <unicode hex="A4EF"/>
  <outline>
    <contour>
      <point x="1192" y="1223" type="line"/>
      <point x="826" y="2" type="line"/>
      <point x="465" y="2" type="line"/>
      <point x="90" y="1223" type="line"/>
      <point x="383" y="1223" type="line"/>
      <point x="435" y="989" type="line"/>
      <point x="854" y="989" type="line"/>
      <point x="924" y="1223" type="line"/>
    </contour>
    <contour>
      <point x="832" y="819" type="line"/>
      <point x="457" y="819" type="line"/>
      <point x="648" y="201" type="line"/>
    </contour>
  </outline>
</glyph>
<glyph name="uniA4F2" format="2">
  <advance width="633"/>
  <unicode hex="A4F2"/>
  <outline>
    <contour>
      <point x="467" y="2" type="line"/>
      <point x="209" y="2" type="line"/>
      <point x="209" y="1223" type="line"/>
      <point x="467" y="1223" type="line"/>
    </contour>
  </outline>
</glyph>
<glyph name="uniA4F3" format="2">
  <advance width="1298"/>
  <unicode hex="A4F3"/>
  <outline>
    <contour>
      <point x="1161" y="565" type="qcurve"/>
      <point x="1161" y="262"/>
      <point x="1061" y="129" type="qcurve"/>
      <point x="944" y="-23"/>
      <point x="649" y="-23" type="qcurve"/>
      <point x="354" y="-23"/>
      <point x="238" y="129" type="qcurve"/>
      <point x="137" y="262"/>
      <point x="137" y="565" type="qcurve"/>
      <point x="137" y="887"/>
      <point x="229" y="1040" type="qcurve"/>
      <point x="348" y="1239"/>
      <point x="649" y="1239" type="qcurve"/>
      <point x="950" y="1239"/>
      <point x="1069" y="1040" type="qcurve"/>
      <point x="1161" y="887"/>
    </contour>
    <contour>
      <point x="879" y="674" type="qcurve"/>
      <point x="879" y="1092"/>
      <point x="649" y="1092" type="qcurve"/>
      <point x="420" y="1092"/>
      <point x="420" y="674" type="qcurve"/>
      <point x="420" y="410"/>
      <point x="436" y="334" type="qcurve"/>
      <point x="481" y="125"/>
      <point x="649" y="125" type="qcurve"/>
      <point x="760" y="125"/>
      <point x="879" y="295"/>
    </contour>
  </outline>
</glyph>
<glyph name="uniA4F7" format="2">
  <advance width="1253"/>
  <unicode hex="A4F7"/>
  <outline>
    <contour>
      <point x="1118" y="2" type="line"/>
      <point x="639" y="2" type="line"/>
      <point x="360" y="2"/>
      <point x="240" y="156" type="qcurve"/>
      <point x="133" y="293"/>
      <point x="133" y="580" type="qcurve"/>
      <point x="133" y="1223"/>
      <point x="659" y="1223" type="qcurve"/>
      <point x="1118" y="1223" type="line"/>
    </contour>
    <contour>
      <point x="842" y="152" type="line"/>
      <point x="842" y="1075" type="line"/>
      <point x="686" y="1075" type="line"/>
      <point x="598" y="1075"/>
      <point x="539" y="1030" type="qcurve"/>
      <point x="430" y="948"/>
      <point x="430" y="526" type="qcurve"/>
      <point x="430" y="362"/>
      <point x="465" y="279" type="qcurve"/>
      <point x="518" y="152"/>
      <point x="659" y="152" type="qcurve"/>
    </contour>
  </outline>
</glyph>
<glyph name="uniA4F9" format="2">
  <advance width="526"/>
  <unicode hex="A4F9"/>
  <outline>
    <contour>
      <point x="444" y="-4" type="line"/>
      <point x="444" y="-256"/>
      <point x="163" y="-311" type="qcurve"/>
      <point x="163" y="-233" type="line"/>
      <point x="335" y="-190"/>
      <point x="333" y="4" type="qcurve"/>
      <point x="143" y="4" type="line"/>
      <point x="143" y="293" type="line"/>
      <point x="444" y="293" type="line"/>
    </contour>
  </outline>
</glyph>
<glyph name="uniA4FA" format="2">
  <advance width="961"/>
  <unicode hex="A4FA"/>
  <outline>
    <contour>
      <point x="974" y="0" type="line"/>
      <point x="675" y="0" type="line"/>
      <point x="675" y="287" type="line"/>
      <point x="974" y="287" type="line"/>
    </contour>
    <contour>
      <point x="446" y="0" type="line"/>
      <point x="147" y="0" type="line"/>
      <point x="147" y="287" type="line"/>
      <point x="446" y="287" type="line"/>
    </contour>
  </outline>
</glyph>
<glyph name="uniA4FB" format="2">
  <advance width="981"/>
  <unicode hex="A4FB"/>
  <outline>
    <contour>
      <point x="962" y="-4" type="line"/>
      <point x="962" y="-250"/>
      <point x="682" y="-303" type="qcurve"/>
      <point x="682" y="-227" type="line"/>
      <point x="854" y="-186"/>
      <point x="852" y="4" type="qcurve"/>
      <point x="661" y="4" type="line"/>
      <point x="661" y="285" type="line"/>
      <point x="962" y="285" type="line"/>
    </contour>
    <contour>
      <point x="436" y="0" type="line"/>
      <point x="135" y="0" type="line"/>
      <point x="135" y="287" type="line"/>
      <point x="436" y="287" type="line"/>
    </contour>
  </outline>
</glyph>
<glyph name="uniA4FC" format="2">
  <advance width="559"/>
  <unicode hex="A4FC"/>
  <outline>
    <contour>
      <point x="444" y="604" type="line"/>
      <point x="143" y="604" type="line"/>
      <point x="143" y="893" type="line"/>
      <point x="444" y="893" type="line"/>
    </contour>
    <contour>
      <point x="444" y="-8" type="line"/>
      <point x="444" y="-252"/>
      <point x="163" y="-305" type="qcurve"/>
      <point x="163" y="-229" type="line"/>
      <point x="335" y="-188"/>
      <point x="333" y="2" type="qcurve"/>
      <point x="143" y="2" type="line"/>
      <point x="143" y="291" type="line"/>
      <point x="444" y="291" type="line"/>
    </contour>
  </outline>
</glyph>
<glyph name="uniA4FE" format="2">
  <advance width="1186"/>
  <unicode hex="A4FE"/>
  <outline>
    <contour>
      <point x="1145" y="0" type="line"/>
      <point x="846" y="0" type="line"/>
      <point x="846" y="287" type="line"/>
      <point x="1145" y="287" type="line"/>
    </contour>
    <contour>
      <point x="834" y="477" type="line"/>
      <point x="201" y="477" type="line"/>
      <point x="201" y="664" type="line"/>
      <point x="834" y="664" type="line"/>
    </contour>
  </outline>
</glyph>
<glyph name="uniA4FF" format="2">
  <advance width="1305"/>
  <unicode hex="A4FF"/>
  <outline>
    <contour>
      <point x="1100" y="651" type="line"/>
      <point x="182" y="651" type="line"/>
      <point x="182" y="807" type="line"/>
      <point x="1100" y="807" type="line"/>
    </contour>
    <contour>
      <point x="1100" y="274" type="line"/>
      <point x="182" y="274" type="line"/>
      <point x="182" y="430" type="line"/>
      <point x="1100" y="430" type="line"/>
    </contour>
  </outline>
</glyph>
